<mxfile host="app.diagrams.net" modified="2021-03-05T15:03:32.369Z" agent="5.0 (Windows NT 10.0; Win64; x64) AppleWebKit/537.36 (KHTML, like Gecko) Chrome/89.0.4389.72 Safari/537.36" etag="u6cX7BW1HK0SwEcK73Pz" version="14.4.4" type="github">
  <diagram id="wgFWXUjJICxdFmFuu-bS" name="Page-1">
    <mxGraphModel dx="1929" dy="582" grid="1" gridSize="10" guides="1" tooltips="1" connect="1" arrows="1" fold="1" page="1" pageScale="1" pageWidth="827" pageHeight="1169" math="0" shadow="0">
      <root>
        <mxCell id="0" />
        <mxCell id="1" parent="0" />
        <mxCell id="pFkEc0a8NW2LR80c-Vau-38" style="edgeStyle=orthogonalEdgeStyle;rounded=0;orthogonalLoop=1;jettySize=auto;html=1;entryX=0.5;entryY=1;entryDx=0;entryDy=0;" parent="1" source="pFkEc0a8NW2LR80c-Vau-1" edge="1">
          <mxGeometry relative="1" as="geometry">
            <mxPoint x="521" y="90" as="targetPoint" />
          </mxGeometry>
        </mxCell>
        <mxCell id="1CoDGrdCYkaN-wlM0zXR-13" style="edgeStyle=orthogonalEdgeStyle;rounded=1;orthogonalLoop=1;jettySize=auto;html=1;entryX=0.5;entryY=0;entryDx=0;entryDy=0;strokeColor=#000000;" edge="1" parent="1" source="pFkEc0a8NW2LR80c-Vau-1" target="pFkEc0a8NW2LR80c-Vau-42">
          <mxGeometry relative="1" as="geometry" />
        </mxCell>
        <mxCell id="pFkEc0a8NW2LR80c-Vau-1" value="Директор" style="shape=umlActor;verticalLabelPosition=bottom;verticalAlign=top;html=1;outlineConnect=0;" parent="1" vertex="1">
          <mxGeometry x="506" y="280" width="30" height="60" as="geometry" />
        </mxCell>
        <mxCell id="pFkEc0a8NW2LR80c-Vau-10" style="edgeStyle=orthogonalEdgeStyle;rounded=0;orthogonalLoop=1;jettySize=auto;html=1;" parent="1" source="pFkEc0a8NW2LR80c-Vau-2" target="pFkEc0a8NW2LR80c-Vau-9" edge="1">
          <mxGeometry relative="1" as="geometry" />
        </mxCell>
        <mxCell id="pFkEc0a8NW2LR80c-Vau-22" style="edgeStyle=orthogonalEdgeStyle;rounded=0;orthogonalLoop=1;jettySize=auto;html=1;entryX=0;entryY=0.5;entryDx=0;entryDy=0;" parent="1" source="pFkEc0a8NW2LR80c-Vau-2" target="pFkEc0a8NW2LR80c-Vau-19" edge="1">
          <mxGeometry relative="1" as="geometry">
            <Array as="points">
              <mxPoint x="285" y="50" />
            </Array>
          </mxGeometry>
        </mxCell>
        <mxCell id="pFkEc0a8NW2LR80c-Vau-2" value="Начальник отдела" style="shape=umlActor;verticalLabelPosition=bottom;verticalAlign=top;html=1;outlineConnect=0;" parent="1" vertex="1">
          <mxGeometry x="270" y="320" width="30" height="60" as="geometry" />
        </mxCell>
        <mxCell id="pFkEc0a8NW2LR80c-Vau-8" style="edgeStyle=orthogonalEdgeStyle;rounded=0;orthogonalLoop=1;jettySize=auto;html=1;entryX=0;entryY=0.5;entryDx=0;entryDy=0;" parent="1" source="pFkEc0a8NW2LR80c-Vau-6" edge="1" target="pFkEc0a8NW2LR80c-Vau-7">
          <mxGeometry relative="1" as="geometry">
            <mxPoint x="80" y="240" as="targetPoint" />
          </mxGeometry>
        </mxCell>
        <mxCell id="pFkEc0a8NW2LR80c-Vau-6" value="Новый сотрудник" style="shape=umlActor;verticalLabelPosition=bottom;verticalAlign=top;html=1;outlineConnect=0;" parent="1" vertex="1">
          <mxGeometry x="-130" y="210" width="30" height="60" as="geometry" />
        </mxCell>
        <mxCell id="1CoDGrdCYkaN-wlM0zXR-2" style="edgeStyle=orthogonalEdgeStyle;rounded=0;orthogonalLoop=1;jettySize=auto;html=1;" edge="1" parent="1" source="pFkEc0a8NW2LR80c-Vau-7">
          <mxGeometry relative="1" as="geometry">
            <mxPoint x="120" y="240" as="targetPoint" />
          </mxGeometry>
        </mxCell>
        <mxCell id="pFkEc0a8NW2LR80c-Vau-7" value="Регистрация" style="ellipse;whiteSpace=wrap;html=1;" parent="1" vertex="1">
          <mxGeometry x="-50" y="200" width="120" height="80" as="geometry" />
        </mxCell>
        <mxCell id="pFkEc0a8NW2LR80c-Vau-11" style="edgeStyle=orthogonalEdgeStyle;rounded=0;orthogonalLoop=1;jettySize=auto;html=1;" parent="1" source="pFkEc0a8NW2LR80c-Vau-9" target="1CoDGrdCYkaN-wlM0zXR-1" edge="1">
          <mxGeometry relative="1" as="geometry" />
        </mxCell>
        <mxCell id="pFkEc0a8NW2LR80c-Vau-9" value="Подтверждение регистрации" style="ellipse;whiteSpace=wrap;html=1;" parent="1" vertex="1">
          <mxGeometry x="80" y="310" width="120" height="80" as="geometry" />
        </mxCell>
        <mxCell id="pFkEc0a8NW2LR80c-Vau-13" value="Мессенджер" style="ellipse;whiteSpace=wrap;html=1;" parent="1" vertex="1">
          <mxGeometry x="330" y="140" width="120" height="80" as="geometry" />
        </mxCell>
        <mxCell id="pFkEc0a8NW2LR80c-Vau-15" value="" style="endArrow=none;html=1;entryX=0.5;entryY=1;entryDx=0;entryDy=0;" parent="1" target="pFkEc0a8NW2LR80c-Vau-13" edge="1">
          <mxGeometry width="50" height="50" relative="1" as="geometry">
            <mxPoint x="285" y="320" as="sourcePoint" />
            <mxPoint x="440" y="270" as="targetPoint" />
            <Array as="points">
              <mxPoint x="285" y="260" />
            </Array>
          </mxGeometry>
        </mxCell>
        <mxCell id="pFkEc0a8NW2LR80c-Vau-19" value="Календарь отпусков" style="ellipse;whiteSpace=wrap;html=1;" parent="1" vertex="1">
          <mxGeometry x="461" y="10" width="120" height="80" as="geometry" />
        </mxCell>
        <mxCell id="pFkEc0a8NW2LR80c-Vau-30" value="" style="edgeStyle=orthogonalEdgeStyle;rounded=0;orthogonalLoop=1;jettySize=auto;html=1;exitX=1;exitY=0.5;exitDx=0;exitDy=0;" parent="1" target="1CoDGrdCYkaN-wlM0zXR-4" edge="1">
          <mxGeometry relative="1" as="geometry">
            <mxPoint x="362.5" y="560" as="sourcePoint" />
            <mxPoint x="440" y="560" as="targetPoint" />
          </mxGeometry>
        </mxCell>
        <mxCell id="pFkEc0a8NW2LR80c-Vau-23" value="Запланировать мед осмотр, инструктаж , дать личное задание или создать уведомление" style="ellipse;whiteSpace=wrap;html=1;" parent="1" vertex="1">
          <mxGeometry x="207.5" y="510" width="155" height="100" as="geometry" />
        </mxCell>
        <mxCell id="pFkEc0a8NW2LR80c-Vau-24" value="Уведомление от начальства" style="ellipse;whiteSpace=wrap;html=1;" parent="1" vertex="1">
          <mxGeometry x="607" y="520" width="120" height="80" as="geometry" />
        </mxCell>
        <mxCell id="pFkEc0a8NW2LR80c-Vau-40" style="edgeStyle=orthogonalEdgeStyle;rounded=0;orthogonalLoop=1;jettySize=auto;html=1;entryX=1;entryY=0.5;entryDx=0;entryDy=0;" parent="1" source="pFkEc0a8NW2LR80c-Vau-5" edge="1">
          <mxGeometry relative="1" as="geometry">
            <mxPoint x="581" y="50" as="targetPoint" />
            <Array as="points">
              <mxPoint x="667" y="50" />
            </Array>
          </mxGeometry>
        </mxCell>
        <mxCell id="pFkEc0a8NW2LR80c-Vau-5" value="Работник отдела" style="shape=umlActor;verticalLabelPosition=bottom;verticalAlign=top;html=1;outlineConnect=0;" parent="1" vertex="1">
          <mxGeometry x="652" y="310" width="30" height="60" as="geometry" />
        </mxCell>
        <mxCell id="pFkEc0a8NW2LR80c-Vau-36" value="" style="endArrow=none;html=1;entryX=0.5;entryY=1;entryDx=0;entryDy=0;" parent="1" target="pFkEc0a8NW2LR80c-Vau-13" edge="1">
          <mxGeometry width="50" height="50" relative="1" as="geometry">
            <mxPoint x="522" y="310" as="sourcePoint" />
            <mxPoint x="442" y="220" as="targetPoint" />
            <Array as="points">
              <mxPoint x="518" y="260" />
            </Array>
          </mxGeometry>
        </mxCell>
        <mxCell id="1CoDGrdCYkaN-wlM0zXR-11" style="edgeStyle=orthogonalEdgeStyle;rounded=1;orthogonalLoop=1;jettySize=auto;html=1;entryX=0.5;entryY=0;entryDx=0;entryDy=0;entryPerimeter=0;strokeColor=#000000;" edge="1" parent="1" source="pFkEc0a8NW2LR80c-Vau-42" target="1CoDGrdCYkaN-wlM0zXR-4">
          <mxGeometry relative="1" as="geometry" />
        </mxCell>
        <mxCell id="pFkEc0a8NW2LR80c-Vau-42" value="Выдать задание" style="ellipse;whiteSpace=wrap;html=1;" parent="1" vertex="1">
          <mxGeometry x="405" y="400" width="120" height="80" as="geometry" />
        </mxCell>
        <mxCell id="1CoDGrdCYkaN-wlM0zXR-1" value="БД. регистрация" style="shape=umlActor;verticalLabelPosition=bottom;verticalAlign=top;html=1;outlineConnect=0;" vertex="1" parent="1">
          <mxGeometry x="125" y="210" width="30" height="60" as="geometry" />
        </mxCell>
        <mxCell id="1CoDGrdCYkaN-wlM0zXR-5" style="edgeStyle=orthogonalEdgeStyle;rounded=0;orthogonalLoop=1;jettySize=auto;html=1;exitX=0;exitY=0.5;exitDx=0;exitDy=0;" edge="1" parent="1" source="pFkEc0a8NW2LR80c-Vau-24" target="1CoDGrdCYkaN-wlM0zXR-4">
          <mxGeometry relative="1" as="geometry">
            <mxPoint x="560" y="580" as="targetPoint" />
          </mxGeometry>
        </mxCell>
        <mxCell id="1CoDGrdCYkaN-wlM0zXR-15" style="edgeStyle=orthogonalEdgeStyle;rounded=1;orthogonalLoop=1;jettySize=auto;html=1;strokeColor=#000000;" edge="1" parent="1" source="1CoDGrdCYkaN-wlM0zXR-4" target="pFkEc0a8NW2LR80c-Vau-2">
          <mxGeometry relative="1" as="geometry">
            <mxPoint x="330" y="360" as="targetPoint" />
            <Array as="points">
              <mxPoint x="380" y="560" />
              <mxPoint x="380" y="350" />
            </Array>
          </mxGeometry>
        </mxCell>
        <mxCell id="1CoDGrdCYkaN-wlM0zXR-4" value="БД. задания и &lt;br&gt;запланированные уведомления" style="shape=umlActor;verticalLabelPosition=bottom;verticalAlign=top;html=1;outlineConnect=0;" vertex="1" parent="1">
          <mxGeometry x="450" y="530" width="30" height="60" as="geometry" />
        </mxCell>
        <mxCell id="1CoDGrdCYkaN-wlM0zXR-6" value="" style="endArrow=none;html=1;strokeColor=#000000;entryX=0.5;entryY=0;entryDx=0;entryDy=0;" edge="1" parent="1" source="pFkEc0a8NW2LR80c-Vau-2" target="pFkEc0a8NW2LR80c-Vau-23">
          <mxGeometry width="50" height="50" relative="1" as="geometry">
            <mxPoint x="350" y="430" as="sourcePoint" />
            <mxPoint x="400" y="380" as="targetPoint" />
          </mxGeometry>
        </mxCell>
        <mxCell id="1CoDGrdCYkaN-wlM0zXR-7" value="" style="endArrow=none;html=1;strokeColor=#000000;entryX=0.5;entryY=0;entryDx=0;entryDy=0;" edge="1" parent="1" target="pFkEc0a8NW2LR80c-Vau-24">
          <mxGeometry width="50" height="50" relative="1" as="geometry">
            <mxPoint x="666.5" y="380" as="sourcePoint" />
            <mxPoint x="666.5" y="510" as="targetPoint" />
          </mxGeometry>
        </mxCell>
      </root>
    </mxGraphModel>
  </diagram>
</mxfile>
